<mxfile host="app.diagrams.net" modified="2023-03-28T00:44:00.418Z" agent="Mozilla/5.0 (Windows NT 10.0; Win64; x64) AppleWebKit/537.36 (KHTML, like Gecko) Chrome/111.0.0.0 Safari/537.36" etag="0queh-fWKAI6-7xLDBq5" version="21.1.1" type="device">
  <diagram name="Page-1" id="c4acf3e9-155e-7222-9cf6-157b1a14988f">
    <mxGraphModel dx="2333" dy="2331" grid="0" gridSize="10" guides="1" tooltips="1" connect="1" arrows="1" fold="1" page="1" pageScale="1" pageWidth="827" pageHeight="1169" background="none" math="0" shadow="0">
      <root>
        <mxCell id="0" />
        <mxCell id="1" parent="0" />
        <mxCell id="17acba5748e5396b-2" value="commentaire" style="swimlane;html=1;fontStyle=0;childLayout=stackLayout;horizontal=1;startSize=26;fillColor=none;horizontalStack=0;resizeParent=1;resizeLast=0;collapsible=1;marginBottom=0;swimlaneFillColor=#ffffff;rounded=0;shadow=0;comic=0;labelBackgroundColor=none;strokeWidth=1;fontFamily=Verdana;fontSize=10;align=center;" parent="1" vertex="1">
          <mxGeometry x="470" y="570" width="160" height="186" as="geometry" />
        </mxCell>
        <mxCell id="17acba5748e5396b-3" value="- id_commentaire: type" style="text;html=1;strokeColor=none;fillColor=none;align=left;verticalAlign=top;spacingLeft=4;spacingRight=4;whiteSpace=wrap;overflow=hidden;rotatable=0;points=[[0,0.5],[1,0.5]];portConstraint=eastwest;" parent="17acba5748e5396b-2" vertex="1">
          <mxGeometry y="26" width="160" height="26" as="geometry" />
        </mxCell>
        <mxCell id="17acba5748e5396b-4" value="- date_cmnt: date" style="text;html=1;strokeColor=none;fillColor=none;align=left;verticalAlign=top;spacingLeft=4;spacingRight=4;whiteSpace=wrap;overflow=hidden;rotatable=0;points=[[0,0.5],[1,0.5]];portConstraint=eastwest;" parent="17acba5748e5396b-2" vertex="1">
          <mxGeometry y="52" width="160" height="26" as="geometry" />
        </mxCell>
        <mxCell id="17acba5748e5396b-6" value="- contenu_cmnt: type" style="text;html=1;strokeColor=none;fillColor=none;align=left;verticalAlign=top;spacingLeft=4;spacingRight=4;whiteSpace=wrap;overflow=hidden;rotatable=0;points=[[0,0.5],[1,0.5]];portConstraint=eastwest;" parent="17acba5748e5396b-2" vertex="1">
          <mxGeometry y="78" width="160" height="26" as="geometry" />
        </mxCell>
        <mxCell id="17acba5748e5396b-8" value="-id_pub: char" style="text;html=1;strokeColor=none;fillColor=none;align=left;verticalAlign=top;spacingLeft=4;spacingRight=4;whiteSpace=wrap;overflow=hidden;rotatable=0;points=[[0,0.5],[1,0.5]];portConstraint=eastwest;" parent="17acba5748e5396b-2" vertex="1">
          <mxGeometry y="104" width="160" height="26" as="geometry" />
        </mxCell>
        <mxCell id="17acba5748e5396b-20" value="admin" style="swimlane;html=1;fontStyle=0;childLayout=stackLayout;horizontal=1;startSize=26;fillColor=none;horizontalStack=0;resizeParent=1;resizeLast=0;collapsible=1;marginBottom=0;swimlaneFillColor=#ffffff;rounded=0;shadow=0;comic=0;labelBackgroundColor=none;strokeWidth=1;fontFamily=Verdana;fontSize=10;align=center;" parent="1" vertex="1">
          <mxGeometry y="330" width="160" height="102" as="geometry" />
        </mxCell>
        <mxCell id="17acba5748e5396b-24" value="-id_photo" style="text;html=1;strokeColor=none;fillColor=none;align=left;verticalAlign=top;spacingLeft=4;spacingRight=4;whiteSpace=wrap;overflow=hidden;rotatable=0;points=[[0,0.5],[1,0.5]];portConstraint=eastwest;" parent="17acba5748e5396b-20" vertex="1">
          <mxGeometry y="26" width="160" height="26" as="geometry" />
        </mxCell>
        <mxCell id="SahYqYB1amzLbVI1iF_e-89" value="-nbre_abonnement" style="text;html=1;strokeColor=none;fillColor=none;align=left;verticalAlign=top;spacingLeft=4;spacingRight=4;whiteSpace=wrap;overflow=hidden;rotatable=0;points=[[0,0.5],[1,0.5]];portConstraint=eastwest;" vertex="1" parent="17acba5748e5396b-20">
          <mxGeometry y="52" width="160" height="26" as="geometry" />
        </mxCell>
        <mxCell id="17acba5748e5396b-30" value="donneur" style="swimlane;html=1;fontStyle=0;childLayout=stackLayout;horizontal=1;startSize=26;fillColor=none;horizontalStack=0;resizeParent=1;resizeLast=0;collapsible=1;marginBottom=0;swimlaneFillColor=#ffffff;rounded=0;shadow=0;comic=0;labelBackgroundColor=none;strokeWidth=1;fontFamily=Verdana;fontSize=10;align=center;" parent="1" vertex="1">
          <mxGeometry x="90" y="200" width="160" height="110" as="geometry" />
        </mxCell>
        <mxCell id="SahYqYB1amzLbVI1iF_e-75" value="-id_photo" style="text;html=1;strokeColor=none;fillColor=none;align=left;verticalAlign=top;spacingLeft=4;spacingRight=4;whiteSpace=wrap;overflow=hidden;rotatable=0;points=[[0,0.5],[1,0.5]];portConstraint=eastwest;" vertex="1" parent="17acba5748e5396b-30">
          <mxGeometry y="26" width="160" height="26" as="geometry" />
        </mxCell>
        <mxCell id="SahYqYB1amzLbVI1iF_e-76" value="-nb_abonnement" style="text;html=1;strokeColor=none;fillColor=none;align=left;verticalAlign=top;spacingLeft=4;spacingRight=4;whiteSpace=wrap;overflow=hidden;rotatable=0;points=[[0,0.5],[1,0.5]];portConstraint=eastwest;" vertex="1" parent="17acba5748e5396b-30">
          <mxGeometry y="52" width="160" height="26" as="geometry" />
        </mxCell>
        <mxCell id="17acba5748e5396b-44" value="historique de payment" style="swimlane;html=1;fontStyle=0;childLayout=stackLayout;horizontal=1;startSize=26;fillColor=none;horizontalStack=0;resizeParent=1;resizeLast=0;collapsible=1;marginBottom=0;swimlaneFillColor=#ffffff;rounded=0;shadow=0;comic=0;labelBackgroundColor=none;strokeWidth=1;fontFamily=Verdana;fontSize=10;align=center;" parent="1" vertex="1">
          <mxGeometry x="660" y="908" width="160" height="90" as="geometry" />
        </mxCell>
        <mxCell id="17acba5748e5396b-45" value="-payed_At" style="text;html=1;strokeColor=none;fillColor=none;align=left;verticalAlign=top;spacingLeft=4;spacingRight=4;whiteSpace=wrap;overflow=hidden;rotatable=0;points=[[0,0.5],[1,0.5]];portConstraint=eastwest;" parent="17acba5748e5396b-44" vertex="1">
          <mxGeometry y="26" width="160" height="26" as="geometry" />
        </mxCell>
        <mxCell id="17acba5748e5396b-47" value="-montant_payé" style="text;html=1;strokeColor=none;fillColor=none;align=left;verticalAlign=top;spacingLeft=4;spacingRight=4;whiteSpace=wrap;overflow=hidden;rotatable=0;points=[[0,0.5],[1,0.5]];portConstraint=eastwest;" parent="17acba5748e5396b-44" vertex="1">
          <mxGeometry y="52" width="160" height="38" as="geometry" />
        </mxCell>
        <mxCell id="5d2195bd80daf111-5" value="charité" style="swimlane;html=1;fontStyle=0;childLayout=stackLayout;horizontal=1;startSize=26;fillColor=none;horizontalStack=0;resizeParent=1;resizeLast=0;collapsible=1;marginBottom=0;swimlaneFillColor=#ffffff;rounded=0;shadow=0;comic=0;labelBackgroundColor=none;strokeWidth=1;fontFamily=Verdana;fontSize=10;align=center;" parent="1" vertex="1">
          <mxGeometry x="303" y="119" width="160" height="271" as="geometry" />
        </mxCell>
        <mxCell id="5d2195bd80daf111-6" value="-codepostale: type" style="text;html=1;strokeColor=none;fillColor=none;align=left;verticalAlign=top;spacingLeft=4;spacingRight=4;whiteSpace=wrap;overflow=hidden;rotatable=0;points=[[0,0.5],[1,0.5]];portConstraint=eastwest;" parent="5d2195bd80daf111-5" vertex="1">
          <mxGeometry y="26" width="160" height="26" as="geometry" />
        </mxCell>
        <mxCell id="SahYqYB1amzLbVI1iF_e-101" value="- creation: date" style="text;html=1;strokeColor=none;fillColor=none;align=left;verticalAlign=top;spacingLeft=4;spacingRight=4;whiteSpace=wrap;overflow=hidden;rotatable=0;points=[[0,0.5],[1,0.5]];portConstraint=eastwest;" vertex="1" parent="5d2195bd80daf111-5">
          <mxGeometry y="52" width="160" height="20" as="geometry" />
        </mxCell>
        <mxCell id="SahYqYB1amzLbVI1iF_e-87" value="- phone: char" style="text;html=1;strokeColor=none;fillColor=none;align=left;verticalAlign=top;spacingLeft=4;spacingRight=4;whiteSpace=wrap;overflow=hidden;rotatable=0;points=[[0,0.5],[1,0.5]];portConstraint=eastwest;" vertex="1" parent="5d2195bd80daf111-5">
          <mxGeometry y="72" width="160" height="25" as="geometry" />
        </mxCell>
        <mxCell id="SahYqYB1amzLbVI1iF_e-85" value="- description: texte" style="text;html=1;strokeColor=none;fillColor=none;align=left;verticalAlign=top;spacingLeft=4;spacingRight=4;whiteSpace=wrap;overflow=hidden;rotatable=0;points=[[0,0.5],[1,0.5]];portConstraint=eastwest;" vertex="1" parent="5d2195bd80daf111-5">
          <mxGeometry y="97" width="160" height="20" as="geometry" />
        </mxCell>
        <mxCell id="5d2195bd80daf111-7" value="- phone: char" style="text;html=1;strokeColor=none;fillColor=none;align=left;verticalAlign=top;spacingLeft=4;spacingRight=4;whiteSpace=wrap;overflow=hidden;rotatable=0;points=[[0,0.5],[1,0.5]];portConstraint=eastwest;" parent="5d2195bd80daf111-5" vertex="1">
          <mxGeometry y="117" width="160" height="21" as="geometry" />
        </mxCell>
        <mxCell id="SahYqYB1amzLbVI1iF_e-69" value="- linkfb:string&amp;nbsp;" style="text;html=1;strokeColor=none;fillColor=none;align=left;verticalAlign=top;spacingLeft=4;spacingRight=4;whiteSpace=wrap;overflow=hidden;rotatable=0;points=[[0,0.5],[1,0.5]];portConstraint=eastwest;" vertex="1" parent="5d2195bd80daf111-5">
          <mxGeometry y="138" width="160" height="24" as="geometry" />
        </mxCell>
        <mxCell id="SahYqYB1amzLbVI1iF_e-74" value="- fax:char&amp;nbsp;" style="text;html=1;strokeColor=none;fillColor=none;align=left;verticalAlign=top;spacingLeft=4;spacingRight=4;whiteSpace=wrap;overflow=hidden;rotatable=0;points=[[0,0.5],[1,0.5]];portConstraint=eastwest;" vertex="1" parent="5d2195bd80daf111-5">
          <mxGeometry y="162" width="160" height="20" as="geometry" />
        </mxCell>
        <mxCell id="SahYqYB1amzLbVI1iF_e-77" value="-nb_abonnement" style="text;html=1;strokeColor=none;fillColor=none;align=left;verticalAlign=top;spacingLeft=4;spacingRight=4;whiteSpace=wrap;overflow=hidden;rotatable=0;points=[[0,0.5],[1,0.5]];portConstraint=eastwest;" vertex="1" parent="5d2195bd80daf111-5">
          <mxGeometry y="182" width="160" height="16" as="geometry" />
        </mxCell>
        <mxCell id="SahYqYB1amzLbVI1iF_e-81" value="-nb_reactions" style="text;html=1;strokeColor=none;fillColor=none;align=left;verticalAlign=top;spacingLeft=4;spacingRight=4;whiteSpace=wrap;overflow=hidden;rotatable=0;points=[[0,0.5],[1,0.5]];portConstraint=eastwest;" vertex="1" parent="5d2195bd80daf111-5">
          <mxGeometry y="198" width="160" height="16" as="geometry" />
        </mxCell>
        <mxCell id="SahYqYB1amzLbVI1iF_e-82" value="-ville:string&lt;br&gt;" style="text;html=1;strokeColor=none;fillColor=none;align=left;verticalAlign=top;spacingLeft=4;spacingRight=4;whiteSpace=wrap;overflow=hidden;rotatable=0;points=[[0,0.5],[1,0.5]];portConstraint=eastwest;" vertex="1" parent="5d2195bd80daf111-5">
          <mxGeometry y="214" width="160" height="16" as="geometry" />
        </mxCell>
        <mxCell id="SahYqYB1amzLbVI1iF_e-84" value="-Etat:string" style="text;html=1;strokeColor=none;fillColor=none;align=left;verticalAlign=top;spacingLeft=4;spacingRight=4;whiteSpace=wrap;overflow=hidden;rotatable=0;points=[[0,0.5],[1,0.5]];portConstraint=eastwest;" vertex="1" parent="5d2195bd80daf111-5">
          <mxGeometry y="230" width="160" height="21" as="geometry" />
        </mxCell>
        <mxCell id="SahYqYB1amzLbVI1iF_e-94" value="- fax:char&amp;nbsp;" style="text;html=1;strokeColor=none;fillColor=none;align=left;verticalAlign=top;spacingLeft=4;spacingRight=4;whiteSpace=wrap;overflow=hidden;rotatable=0;points=[[0,0.5],[1,0.5]];portConstraint=eastwest;" vertex="1" parent="5d2195bd80daf111-5">
          <mxGeometry y="251" width="160" height="20" as="geometry" />
        </mxCell>
        <mxCell id="5d2195bd80daf111-18" value="&lt;p style=&quot;margin:0px;margin-top:4px;text-align:center;&quot;&gt;&lt;i&gt;utilisateur&lt;/i&gt;&lt;/p&gt;&lt;hr size=&quot;1&quot;&gt;&lt;p style=&quot;margin:0px;margin-left:4px;&quot;&gt;-id_utilisateur: Char&lt;br&gt;- nom: String&lt;/p&gt;&lt;p style=&quot;margin:0px;margin-left:4px;&quot;&gt;- prenom :String&lt;/p&gt;&lt;p style=&quot;margin:0px;margin-left:4px;&quot;&gt;-E_mail:String&lt;/p&gt;&lt;p style=&quot;margin:0px;margin-left:4px;&quot;&gt;-Mot de passe: char&lt;/p&gt;&lt;p style=&quot;margin:0px;margin-left:4px;&quot;&gt;&lt;span style=&quot;white-space: pre;&quot;&gt;	&lt;/span&gt;&lt;br&gt;&lt;/p&gt;&lt;hr size=&quot;1&quot;&gt;&lt;p style=&quot;margin:0px;margin-left:4px;&quot;&gt;&lt;br&gt;&lt;/p&gt;" style="verticalAlign=top;align=left;overflow=fill;fontSize=12;fontFamily=Helvetica;html=1;rounded=0;shadow=0;comic=0;labelBackgroundColor=none;strokeWidth=1" parent="1" vertex="1">
          <mxGeometry x="40" y="20" width="190" height="122" as="geometry" />
        </mxCell>
        <mxCell id="BhT-M4iAWBgtH7uGOnwi-2" value="&lt;p style=&quot;margin:0px;margin-top:4px;text-align:center;&quot;&gt;&lt;i&gt;notification&lt;/i&gt;&lt;/p&gt;&lt;hr size=&quot;1&quot;&gt;&lt;p style=&quot;margin:0px;margin-left:4px;&quot;&gt;-id_notif: Char&lt;br&gt;-id_photo:char&lt;/p&gt;&lt;p style=&quot;margin:0px;margin-left:4px;&quot;&gt;-contenu:char&lt;/p&gt;&lt;hr size=&quot;1&quot;&gt;&lt;p style=&quot;margin:0px;margin-left:4px;&quot;&gt;&lt;br&gt;&lt;/p&gt;" style="verticalAlign=top;align=left;overflow=fill;fontSize=12;fontFamily=Helvetica;html=1;rounded=0;shadow=0;comic=0;labelBackgroundColor=none;strokeWidth=1" parent="1" vertex="1">
          <mxGeometry x="630" y="400" width="190" height="110" as="geometry" />
        </mxCell>
        <mxCell id="BhT-M4iAWBgtH7uGOnwi-3" value="&lt;p style=&quot;margin:0px;margin-top:4px;text-align:center;&quot;&gt;&lt;i&gt;publication&lt;/i&gt;&lt;/p&gt;&lt;hr size=&quot;1&quot;&gt;&lt;p style=&quot;margin:0px;margin-left:4px;&quot;&gt;-id_pub:char&lt;/p&gt;&lt;p style=&quot;margin:0px;margin-left:4px;&quot;&gt;-id_utilisateur:char&lt;br&gt;- contenu: texte&lt;/p&gt;&lt;p style=&quot;margin:0px;margin-left:4px;&quot;&gt;-created_at:date&lt;/p&gt;&lt;p style=&quot;margin:0px;margin-left:4px;&quot;&gt;-updated_At:date&lt;/p&gt;&lt;p style=&quot;margin:0px;margin-left:4px;&quot;&gt;&lt;br&gt;&lt;/p&gt;&lt;hr size=&quot;1&quot;&gt;&lt;p style=&quot;margin:0px;margin-left:4px;&quot;&gt;&lt;br&gt;&lt;/p&gt;" style="verticalAlign=top;align=left;overflow=fill;fontSize=12;fontFamily=Helvetica;html=1;rounded=0;shadow=0;comic=0;labelBackgroundColor=none;strokeWidth=1" parent="1" vertex="1">
          <mxGeometry x="470" y="30" width="190" height="146" as="geometry" />
        </mxCell>
        <mxCell id="BhT-M4iAWBgtH7uGOnwi-8" value="" style="endArrow=block;endSize=16;endFill=0;html=1;rounded=0;entryX=0.25;entryY=1;entryDx=0;entryDy=0;exitX=0.332;exitY=-0.009;exitDx=0;exitDy=0;exitPerimeter=0;" parent="1" source="17acba5748e5396b-20" target="5d2195bd80daf111-18" edge="1">
          <mxGeometry x="0.0059" width="160" relative="1" as="geometry">
            <mxPoint x="50" y="250" as="sourcePoint" />
            <mxPoint x="210" y="250" as="targetPoint" />
            <mxPoint as="offset" />
          </mxGeometry>
        </mxCell>
        <mxCell id="BhT-M4iAWBgtH7uGOnwi-9" value="" style="endArrow=block;endSize=16;endFill=0;html=1;rounded=0;entryX=0.68;entryY=0.996;entryDx=0;entryDy=0;exitX=0.25;exitY=0;exitDx=0;exitDy=0;entryPerimeter=0;" parent="1" source="17acba5748e5396b-30" target="5d2195bd80daf111-18" edge="1">
          <mxGeometry x="0.0059" width="160" relative="1" as="geometry">
            <mxPoint x="175" y="329" as="sourcePoint" />
            <mxPoint x="170" y="180" as="targetPoint" />
            <mxPoint as="offset" />
          </mxGeometry>
        </mxCell>
        <mxCell id="BhT-M4iAWBgtH7uGOnwi-10" value="" style="endArrow=block;endSize=16;endFill=0;html=1;rounded=0;exitX=0;exitY=0.25;exitDx=0;exitDy=0;entryX=0.819;entryY=1.004;entryDx=0;entryDy=0;entryPerimeter=0;" parent="1" source="5d2195bd80daf111-5" target="5d2195bd80daf111-18" edge="1">
          <mxGeometry x="0.0059" width="160" relative="1" as="geometry">
            <mxPoint x="73" y="349" as="sourcePoint" />
            <mxPoint x="190" y="180" as="targetPoint" />
            <mxPoint as="offset" />
          </mxGeometry>
        </mxCell>
        <mxCell id="BhT-M4iAWBgtH7uGOnwi-11" value="" style="endArrow=none;html=1;edgeStyle=orthogonalEdgeStyle;rounded=0;" parent="1" edge="1">
          <mxGeometry relative="1" as="geometry">
            <mxPoint x="384" y="119" as="sourcePoint" />
            <mxPoint x="472" y="98" as="targetPoint" />
            <Array as="points">
              <mxPoint x="384" y="96" />
              <mxPoint x="472" y="96" />
              <mxPoint x="472" y="98" />
            </Array>
          </mxGeometry>
        </mxCell>
        <mxCell id="BhT-M4iAWBgtH7uGOnwi-12" value="1..*" style="edgeLabel;resizable=0;html=1;align=left;verticalAlign=bottom;" parent="BhT-M4iAWBgtH7uGOnwi-11" connectable="0" vertex="1">
          <mxGeometry x="-1" relative="1" as="geometry">
            <mxPoint x="-21" y="-2" as="offset" />
          </mxGeometry>
        </mxCell>
        <mxCell id="BhT-M4iAWBgtH7uGOnwi-13" value="0..*" style="edgeLabel;resizable=0;html=1;align=right;verticalAlign=bottom;" parent="BhT-M4iAWBgtH7uGOnwi-11" connectable="0" vertex="1">
          <mxGeometry x="1" relative="1" as="geometry">
            <mxPoint x="-4" y="-4" as="offset" />
          </mxGeometry>
        </mxCell>
        <mxCell id="BhT-M4iAWBgtH7uGOnwi-23" value="" style="endArrow=none;dashed=1;html=1;rounded=0;entryX=0.5;entryY=0;entryDx=0;entryDy=0;" parent="1" target="BhT-M4iAWBgtH7uGOnwi-24" edge="1">
          <mxGeometry width="50" height="50" relative="1" as="geometry">
            <mxPoint x="357" y="395" as="sourcePoint" />
            <mxPoint x="480" y="370" as="targetPoint" />
            <Array as="points">
              <mxPoint x="436" y="395" />
            </Array>
          </mxGeometry>
        </mxCell>
        <mxCell id="BhT-M4iAWBgtH7uGOnwi-24" value="abonnement" style="swimlane;html=1;fontStyle=0;childLayout=stackLayout;horizontal=1;startSize=26;fillColor=none;horizontalStack=0;resizeParent=1;resizeLast=0;collapsible=1;marginBottom=0;swimlaneFillColor=#ffffff;rounded=0;shadow=0;comic=0;labelBackgroundColor=none;strokeWidth=1;fontFamily=Verdana;fontSize=10;align=center;" parent="1" vertex="1">
          <mxGeometry x="356" y="416" width="160" height="130" as="geometry" />
        </mxCell>
        <mxCell id="SahYqYB1amzLbVI1iF_e-100" value="+ field: type" style="text;html=1;strokeColor=none;fillColor=none;align=left;verticalAlign=top;spacingLeft=4;spacingRight=4;whiteSpace=wrap;overflow=hidden;rotatable=0;points=[[0,0.5],[1,0.5]];portConstraint=eastwest;" vertex="1" parent="BhT-M4iAWBgtH7uGOnwi-24">
          <mxGeometry y="26" width="160" height="26" as="geometry" />
        </mxCell>
        <mxCell id="BhT-M4iAWBgtH7uGOnwi-25" value="+ field: type" style="text;html=1;strokeColor=none;fillColor=none;align=left;verticalAlign=top;spacingLeft=4;spacingRight=4;whiteSpace=wrap;overflow=hidden;rotatable=0;points=[[0,0.5],[1,0.5]];portConstraint=eastwest;" parent="BhT-M4iAWBgtH7uGOnwi-24" vertex="1">
          <mxGeometry y="52" width="160" height="26" as="geometry" />
        </mxCell>
        <mxCell id="BhT-M4iAWBgtH7uGOnwi-26" value="+ field: type" style="text;html=1;strokeColor=none;fillColor=none;align=left;verticalAlign=top;spacingLeft=4;spacingRight=4;whiteSpace=wrap;overflow=hidden;rotatable=0;points=[[0,0.5],[1,0.5]];portConstraint=eastwest;" parent="BhT-M4iAWBgtH7uGOnwi-24" vertex="1">
          <mxGeometry y="78" width="160" height="26" as="geometry" />
        </mxCell>
        <mxCell id="BhT-M4iAWBgtH7uGOnwi-27" value="+ field: type" style="text;html=1;strokeColor=none;fillColor=none;align=left;verticalAlign=top;spacingLeft=4;spacingRight=4;whiteSpace=wrap;overflow=hidden;rotatable=0;points=[[0,0.5],[1,0.5]];portConstraint=eastwest;" parent="BhT-M4iAWBgtH7uGOnwi-24" vertex="1">
          <mxGeometry y="104" width="160" height="26" as="geometry" />
        </mxCell>
        <mxCell id="BhT-M4iAWBgtH7uGOnwi-31" value="" style="endArrow=block;endSize=16;endFill=0;html=1;rounded=0;exitX=-0.007;exitY=0.425;exitDx=0;exitDy=0;exitPerimeter=0;" parent="1" edge="1" source="BhT-M4iAWBgtH7uGOnwi-32">
          <mxGeometry x="0.0059" width="160" relative="1" as="geometry">
            <mxPoint x="790" y="140" as="sourcePoint" />
            <mxPoint x="660" y="120" as="targetPoint" />
            <mxPoint as="offset" />
            <Array as="points">
              <mxPoint x="852" y="26" />
              <mxPoint x="852" y="-20" />
              <mxPoint x="790" y="-20" />
              <mxPoint x="790" y="120" />
            </Array>
          </mxGeometry>
        </mxCell>
        <mxCell id="BhT-M4iAWBgtH7uGOnwi-32" value="&lt;p style=&quot;margin:0px;margin-top:4px;text-align:center;&quot;&gt;&lt;i&gt;photo&lt;/i&gt;&lt;/p&gt;&lt;hr size=&quot;1&quot;&gt;&lt;p style=&quot;margin:0px;margin-left:4px;&quot;&gt;- id_photo: char&lt;br&gt;&lt;/p&gt;&lt;p style=&quot;margin:0px;margin-left:4px;&quot;&gt;-extension:string&lt;/p&gt;&lt;p style=&quot;margin:0px;margin-left:4px;&quot;&gt;-path:string&lt;/p&gt;&lt;p style=&quot;margin:0px;margin-left:4px;&quot;&gt;-added_At&lt;/p&gt;&lt;p style=&quot;margin:0px;margin-left:4px;&quot;&gt;-deleted_At&lt;/p&gt;&lt;hr size=&quot;1&quot;&gt;&lt;p style=&quot;margin:0px;margin-left:4px;&quot;&gt;&lt;br&gt;&lt;/p&gt;" style="verticalAlign=top;align=left;overflow=fill;fontSize=12;fontFamily=Helvetica;html=1;rounded=0;shadow=0;comic=0;labelBackgroundColor=none;strokeWidth=1" parent="1" vertex="1">
          <mxGeometry x="880" y="-20" width="160" height="110" as="geometry" />
        </mxCell>
        <mxCell id="BhT-M4iAWBgtH7uGOnwi-33" value="&lt;p style=&quot;margin:0px;margin-top:4px;text-align:center;&quot;&gt;&lt;i&gt;video&lt;/i&gt;&lt;/p&gt;&lt;hr size=&quot;1&quot;&gt;&lt;p style=&quot;margin:0px;margin-left:4px;&quot;&gt;- id_video:char&lt;/p&gt;&lt;p style=&quot;margin:0px;margin-left:4px;&quot;&gt;-extension:string&lt;br&gt;- contenu: Texte&lt;/p&gt;&lt;p style=&quot;margin:0px;margin-left:4px;&quot;&gt;-added_at:date&lt;/p&gt;&lt;hr size=&quot;1&quot;&gt;&lt;p style=&quot;margin:0px;margin-left:4px;&quot;&gt;&lt;br&gt;&lt;/p&gt;" style="verticalAlign=top;align=left;overflow=fill;fontSize=12;fontFamily=Helvetica;html=1;rounded=0;shadow=0;comic=0;labelBackgroundColor=none;strokeWidth=1" parent="1" vertex="1">
          <mxGeometry x="909" y="137" width="160" height="92" as="geometry" />
        </mxCell>
        <mxCell id="BhT-M4iAWBgtH7uGOnwi-34" value="&lt;p style=&quot;margin:0px;margin-top:4px;text-align:center;&quot;&gt;&lt;i&gt;statut&lt;/i&gt;&lt;/p&gt;&lt;hr size=&quot;1&quot;&gt;&lt;p style=&quot;margin:0px;margin-left:4px;&quot;&gt;-id_statut: Type&lt;br&gt;- contenu: texte&lt;/p&gt;&lt;p style=&quot;margin:0px;margin-left:4px;&quot;&gt;-deleted_at&lt;/p&gt;&lt;hr size=&quot;1&quot;&gt;&lt;p style=&quot;margin:0px;margin-left:4px;&quot;&gt;&lt;br&gt;&lt;/p&gt;" style="verticalAlign=top;align=left;overflow=fill;fontSize=12;fontFamily=Helvetica;html=1;rounded=0;shadow=0;comic=0;labelBackgroundColor=none;strokeWidth=1" parent="1" vertex="1">
          <mxGeometry x="1081" y="135" width="160" height="105" as="geometry" />
        </mxCell>
        <mxCell id="BhT-M4iAWBgtH7uGOnwi-50" value="" style="endArrow=none;html=1;rounded=0;entryX=0.5;entryY=0;entryDx=0;entryDy=0;" parent="1" target="BhT-M4iAWBgtH7uGOnwi-33" edge="1">
          <mxGeometry relative="1" as="geometry">
            <mxPoint x="780" y="120" as="sourcePoint" />
            <mxPoint x="939" y="140" as="targetPoint" />
            <Array as="points">
              <mxPoint x="990" y="120" />
            </Array>
          </mxGeometry>
        </mxCell>
        <mxCell id="BhT-M4iAWBgtH7uGOnwi-51" value="" style="endArrow=none;html=1;rounded=0;" parent="1" edge="1">
          <mxGeometry relative="1" as="geometry">
            <mxPoint x="930" y="120" as="sourcePoint" />
            <mxPoint x="1150" y="140" as="targetPoint" />
            <Array as="points">
              <mxPoint x="1150" y="120" />
            </Array>
          </mxGeometry>
        </mxCell>
        <mxCell id="BhT-M4iAWBgtH7uGOnwi-52" value="" style="endArrow=none;html=1;rounded=0;exitX=0.543;exitY=1.014;exitDx=0;exitDy=0;exitPerimeter=0;jumpStyle=arc;entryX=0.5;entryY=0;entryDx=0;entryDy=0;" parent="1" source="BhT-M4iAWBgtH7uGOnwi-3" edge="1" target="BhT-M4iAWBgtH7uGOnwi-2">
          <mxGeometry relative="1" as="geometry">
            <mxPoint x="490" y="260" as="sourcePoint" />
            <mxPoint x="600" y="430" as="targetPoint" />
            <Array as="points">
              <mxPoint x="573" y="270" />
              <mxPoint x="727" y="274" />
            </Array>
          </mxGeometry>
        </mxCell>
        <mxCell id="BhT-M4iAWBgtH7uGOnwi-55" value="" style="endArrow=none;html=1;edgeStyle=orthogonalEdgeStyle;rounded=0;jumpStyle=arc;" parent="1" edge="1">
          <mxGeometry relative="1" as="geometry">
            <mxPoint x="470" y="680" as="sourcePoint" />
            <mxPoint x="190" y="310" as="targetPoint" />
            <Array as="points">
              <mxPoint x="200" y="680" />
              <mxPoint x="200" y="440" />
            </Array>
          </mxGeometry>
        </mxCell>
        <mxCell id="BhT-M4iAWBgtH7uGOnwi-56" value="*" style="edgeLabel;resizable=0;html=1;align=left;verticalAlign=bottom;" parent="BhT-M4iAWBgtH7uGOnwi-55" connectable="0" vertex="1">
          <mxGeometry x="-1" relative="1" as="geometry">
            <mxPoint as="offset" />
          </mxGeometry>
        </mxCell>
        <mxCell id="SahYqYB1amzLbVI1iF_e-1" value="payment&amp;nbsp;" style="swimlane;html=1;fontStyle=0;childLayout=stackLayout;horizontal=1;startSize=26;fillColor=none;horizontalStack=0;resizeParent=1;resizeLast=0;collapsible=1;marginBottom=0;swimlaneFillColor=#ffffff;rounded=0;shadow=0;comic=0;labelBackgroundColor=none;strokeWidth=1;fontFamily=Verdana;fontSize=10;align=center;" vertex="1" parent="1">
          <mxGeometry x="950" y="350" width="160" height="249" as="geometry" />
        </mxCell>
        <mxCell id="SahYqYB1amzLbVI1iF_e-2" value="-id_payment:char" style="text;html=1;strokeColor=none;fillColor=none;align=left;verticalAlign=top;spacingLeft=4;spacingRight=4;whiteSpace=wrap;overflow=hidden;rotatable=0;points=[[0,0.5],[1,0.5]];portConstraint=eastwest;" vertex="1" parent="SahYqYB1amzLbVI1iF_e-1">
          <mxGeometry y="26" width="160" height="26" as="geometry" />
        </mxCell>
        <mxCell id="SahYqYB1amzLbVI1iF_e-3" value="-nom_donneur:string" style="text;html=1;strokeColor=none;fillColor=none;align=left;verticalAlign=top;spacingLeft=4;spacingRight=4;whiteSpace=wrap;overflow=hidden;rotatable=0;points=[[0,0.5],[1,0.5]];portConstraint=eastwest;" vertex="1" parent="SahYqYB1amzLbVI1iF_e-1">
          <mxGeometry y="52" width="160" height="26" as="geometry" />
        </mxCell>
        <mxCell id="SahYqYB1amzLbVI1iF_e-4" value="-prenom_donneur:string" style="text;html=1;strokeColor=none;fillColor=none;align=left;verticalAlign=top;spacingLeft=4;spacingRight=4;whiteSpace=wrap;overflow=hidden;rotatable=0;points=[[0,0.5],[1,0.5]];portConstraint=eastwest;" vertex="1" parent="SahYqYB1amzLbVI1iF_e-1">
          <mxGeometry y="78" width="160" height="26" as="geometry" />
        </mxCell>
        <mxCell id="SahYqYB1amzLbVI1iF_e-6" value="-email: String" style="text;html=1;strokeColor=none;fillColor=none;align=left;verticalAlign=top;spacingLeft=4;spacingRight=4;whiteSpace=wrap;overflow=hidden;rotatable=0;points=[[0,0.5],[1,0.5]];portConstraint=eastwest;" vertex="1" parent="SahYqYB1amzLbVI1iF_e-1">
          <mxGeometry y="104" width="160" height="26" as="geometry" />
        </mxCell>
        <mxCell id="SahYqYB1amzLbVI1iF_e-72" value="-reference: char" style="text;html=1;strokeColor=none;fillColor=none;align=left;verticalAlign=top;spacingLeft=4;spacingRight=4;whiteSpace=wrap;overflow=hidden;rotatable=0;points=[[0,0.5],[1,0.5]];portConstraint=eastwest;" vertex="1" parent="SahYqYB1amzLbVI1iF_e-1">
          <mxGeometry y="130" width="160" height="26" as="geometry" />
        </mxCell>
        <mxCell id="SahYqYB1amzLbVI1iF_e-93" value="-codepostale: char" style="text;html=1;strokeColor=none;fillColor=none;align=left;verticalAlign=top;spacingLeft=4;spacingRight=4;whiteSpace=wrap;overflow=hidden;rotatable=0;points=[[0,0.5],[1,0.5]];portConstraint=eastwest;" vertex="1" parent="SahYqYB1amzLbVI1iF_e-1">
          <mxGeometry y="156" width="160" height="26" as="geometry" />
        </mxCell>
        <mxCell id="SahYqYB1amzLbVI1iF_e-92" value="-phone: char" style="text;html=1;strokeColor=none;fillColor=none;align=left;verticalAlign=top;spacingLeft=4;spacingRight=4;whiteSpace=wrap;overflow=hidden;rotatable=0;points=[[0,0.5],[1,0.5]];portConstraint=eastwest;" vertex="1" parent="SahYqYB1amzLbVI1iF_e-1">
          <mxGeometry y="182" width="160" height="36" as="geometry" />
        </mxCell>
        <mxCell id="SahYqYB1amzLbVI1iF_e-8" value="" style="endArrow=none;html=1;edgeStyle=orthogonalEdgeStyle;rounded=0;exitX=0;exitY=0.5;exitDx=0;exitDy=0;entryX=0.75;entryY=1;entryDx=0;entryDy=0;jumpStyle=arc;" edge="1" parent="1" source="SahYqYB1amzLbVI1iF_e-6" target="17acba5748e5396b-30">
          <mxGeometry relative="1" as="geometry">
            <mxPoint x="950" y="580" as="sourcePoint" />
            <mxPoint x="220" y="440" as="targetPoint" />
            <Array as="points">
              <mxPoint x="910" y="493" />
              <mxPoint x="910" y="610" />
              <mxPoint x="810" y="610" />
              <mxPoint x="810" y="780" />
              <mxPoint x="220" y="780" />
              <mxPoint x="220" y="310" />
            </Array>
          </mxGeometry>
        </mxCell>
        <mxCell id="SahYqYB1amzLbVI1iF_e-12" value="" style="endArrow=none;dashed=1;html=1;rounded=0;" edge="1" parent="1">
          <mxGeometry width="50" height="50" relative="1" as="geometry">
            <mxPoint x="690" y="780" as="sourcePoint" />
            <mxPoint x="690" y="906" as="targetPoint" />
            <Array as="points" />
          </mxGeometry>
        </mxCell>
        <mxCell id="SahYqYB1amzLbVI1iF_e-13" value="" style="endArrow=none;html=1;rounded=0;entryX=0.438;entryY=0.003;entryDx=0;entryDy=0;entryPerimeter=0;jumpStyle=arc;" edge="1" parent="1" target="SahYqYB1amzLbVI1iF_e-1">
          <mxGeometry relative="1" as="geometry">
            <mxPoint x="460" y="250" as="sourcePoint" />
            <mxPoint x="670" y="260" as="targetPoint" />
            <Array as="points">
              <mxPoint x="1020" y="260" />
            </Array>
          </mxGeometry>
        </mxCell>
        <mxCell id="SahYqYB1amzLbVI1iF_e-14" value="&lt;p style=&quot;margin:0px;margin-top:4px;text-align:center;&quot;&gt;&lt;i&gt;file d&#39;actualité&lt;/i&gt;&lt;/p&gt;&lt;hr size=&quot;1&quot;&gt;&lt;p style=&quot;margin:0px;margin-left:4px;&quot;&gt;-id_utilisateur:Char&lt;br&gt;-idpub:char&lt;/p&gt;&lt;p style=&quot;margin:0px;margin-left:4px;&quot;&gt;&lt;br&gt;&lt;/p&gt;" style="verticalAlign=top;align=left;overflow=fill;fontSize=12;fontFamily=Helvetica;html=1;rounded=0;shadow=0;comic=0;labelBackgroundColor=none;strokeWidth=1" vertex="1" parent="1">
          <mxGeometry x="233" y="-132" width="160" height="102" as="geometry" />
        </mxCell>
        <mxCell id="SahYqYB1amzLbVI1iF_e-15" value="" style="endArrow=none;html=1;edgeStyle=orthogonalEdgeStyle;rounded=0;entryX=0.903;entryY=1.088;entryDx=0;entryDy=0;entryPerimeter=0;" edge="1" parent="1" source="5d2195bd80daf111-18" target="SahYqYB1amzLbVI1iF_e-53">
          <mxGeometry relative="1" as="geometry">
            <mxPoint x="188" y="-6" as="sourcePoint" />
            <mxPoint x="230" y="-38" as="targetPoint" />
            <Array as="points">
              <mxPoint x="151" y="-73" />
              <mxPoint x="233" y="-73" />
            </Array>
          </mxGeometry>
        </mxCell>
        <mxCell id="SahYqYB1amzLbVI1iF_e-21" value="" style="endArrow=none;html=1;endSize=12;startArrow=diamondThin;startSize=14;startFill=0;edgeStyle=orthogonalEdgeStyle;rounded=0;exitX=0.5;exitY=0;exitDx=0;exitDy=0;endFill=0;jumpStyle=arc;" edge="1" parent="1" source="BhT-M4iAWBgtH7uGOnwi-3" target="SahYqYB1amzLbVI1iF_e-14">
          <mxGeometry relative="1" as="geometry">
            <mxPoint x="440" y="-20" as="sourcePoint" />
            <mxPoint x="440" y="-50" as="targetPoint" />
            <Array as="points">
              <mxPoint x="565" y="-10" />
              <mxPoint x="480" y="-10" />
              <mxPoint x="480" y="-51" />
            </Array>
          </mxGeometry>
        </mxCell>
        <mxCell id="SahYqYB1amzLbVI1iF_e-22" value="0..n" style="edgeLabel;resizable=0;html=1;align=left;verticalAlign=top;" connectable="0" vertex="1" parent="SahYqYB1amzLbVI1iF_e-21">
          <mxGeometry x="-1" relative="1" as="geometry">
            <mxPoint x="5" y="-30" as="offset" />
          </mxGeometry>
        </mxCell>
        <mxCell id="SahYqYB1amzLbVI1iF_e-24" value="1" style="endArrow=none;html=1;endSize=12;startArrow=diamondThin;startSize=14;startFill=1;edgeStyle=orthogonalEdgeStyle;align=left;verticalAlign=bottom;rounded=0;endFill=0;entryX=0.5;entryY=0;entryDx=0;entryDy=0;jumpStyle=arc;" edge="1" parent="1" target="17acba5748e5396b-2">
          <mxGeometry x="-1" y="3" relative="1" as="geometry">
            <mxPoint x="660" y="150" as="sourcePoint" />
            <mxPoint x="830" y="590" as="targetPoint" />
            <Array as="points">
              <mxPoint x="850" y="150" />
              <mxPoint x="850" y="540" />
              <mxPoint x="550" y="540" />
            </Array>
          </mxGeometry>
        </mxCell>
        <mxCell id="SahYqYB1amzLbVI1iF_e-28" value="" style="endArrow=none;html=1;edgeStyle=orthogonalEdgeStyle;exitX=1;exitY=0.5;exitDx=0;exitDy=0;rounded=0;flowAnimation=0;ignoreEdge=0;orthogonalLoop=0;arcSize=20;shadow=0;jumpStyle=arc;entryX=-0.002;entryY=0.833;entryDx=0;entryDy=0;entryPerimeter=0;" edge="1" parent="1" target="5d2195bd80daf111-6">
          <mxGeometry relative="1" as="geometry">
            <mxPoint x="160" y="380" as="sourcePoint" />
            <mxPoint x="290" y="230" as="targetPoint" />
            <Array as="points">
              <mxPoint x="254" y="380" />
              <mxPoint x="254" y="350" />
              <mxPoint x="290" y="350" />
              <mxPoint x="290" y="228" />
            </Array>
          </mxGeometry>
        </mxCell>
        <mxCell id="SahYqYB1amzLbVI1iF_e-31" value="" style="endArrow=none;html=1;edgeStyle=orthogonalEdgeStyle;rounded=0;exitX=0.621;exitY=-0.025;exitDx=0;exitDy=0;exitPerimeter=0;entryX=0.5;entryY=0;entryDx=0;entryDy=0;" edge="1" parent="1" target="BhT-M4iAWBgtH7uGOnwi-32">
          <mxGeometry relative="1" as="geometry">
            <mxPoint x="120" y="20" as="sourcePoint" />
            <mxPoint x="920" y="-80" as="targetPoint" />
            <Array as="points">
              <mxPoint x="120" y="-150" />
              <mxPoint x="940" y="-150" />
              <mxPoint x="940" y="-20" />
            </Array>
          </mxGeometry>
        </mxCell>
        <mxCell id="SahYqYB1amzLbVI1iF_e-33" value="1" style="edgeLabel;resizable=0;html=1;align=right;verticalAlign=bottom;" connectable="0" vertex="1" parent="SahYqYB1amzLbVI1iF_e-31">
          <mxGeometry x="1" relative="1" as="geometry">
            <mxPoint x="-6" as="offset" />
          </mxGeometry>
        </mxCell>
        <mxCell id="SahYqYB1amzLbVI1iF_e-34" value="&lt;p style=&quot;margin:0px;margin-top:4px;text-align:center;&quot;&gt;&lt;i&gt;reaction&lt;/i&gt;&lt;/p&gt;&lt;hr size=&quot;1&quot;&gt;&lt;p style=&quot;margin:0px;margin-left:4px;&quot;&gt;- id_reaction: char&lt;br&gt;-id_pub: char&lt;/p&gt;&lt;hr size=&quot;1&quot;&gt;&lt;p style=&quot;margin:0px;margin-left:4px;&quot;&gt;+ method1(Type): Type&lt;br&gt;+ method2(Type, Type): Type&lt;/p&gt;" style="verticalAlign=top;align=left;overflow=fill;fontSize=12;fontFamily=Helvetica;html=1;rounded=0;shadow=0;comic=0;labelBackgroundColor=none;strokeWidth=1" vertex="1" parent="1">
          <mxGeometry x="510" y="-140" width="190" height="110" as="geometry" />
        </mxCell>
        <mxCell id="SahYqYB1amzLbVI1iF_e-35" value="1" style="endArrow=none;html=1;endSize=12;startArrow=diamondThin;startSize=14;startFill=1;edgeStyle=orthogonalEdgeStyle;align=left;verticalAlign=bottom;rounded=0;endFill=0;" edge="1" parent="1">
          <mxGeometry x="-1" y="3" relative="1" as="geometry">
            <mxPoint x="660" y="66" as="sourcePoint" />
            <mxPoint x="701" y="-113" as="targetPoint" />
            <Array as="points">
              <mxPoint x="713" y="66" />
              <mxPoint x="713" y="-113" />
            </Array>
          </mxGeometry>
        </mxCell>
        <mxCell id="SahYqYB1amzLbVI1iF_e-36" value="" style="endArrow=none;html=1;edgeStyle=orthogonalEdgeStyle;rounded=0;entryX=0.008;entryY=0.538;entryDx=0;entryDy=0;entryPerimeter=0;exitX=1;exitY=0.5;exitDx=0;exitDy=0;jumpStyle=arc;" edge="1" parent="1" source="5d2195bd80daf111-18">
          <mxGeometry relative="1" as="geometry">
            <mxPoint x="438" y="-20" as="sourcePoint" />
            <mxPoint x="510" y="-75" as="targetPoint" />
            <Array as="points">
              <mxPoint x="230" y="76" />
              <mxPoint x="438" y="76" />
              <mxPoint x="438" y="-75" />
            </Array>
          </mxGeometry>
        </mxCell>
        <mxCell id="SahYqYB1amzLbVI1iF_e-37" value="1" style="edgeLabel;resizable=0;html=1;align=left;verticalAlign=bottom;" connectable="0" vertex="1" parent="SahYqYB1amzLbVI1iF_e-36">
          <mxGeometry x="-1" relative="1" as="geometry">
            <mxPoint x="3" y="-4" as="offset" />
          </mxGeometry>
        </mxCell>
        <mxCell id="SahYqYB1amzLbVI1iF_e-42" value="1" style="text;html=1;align=center;verticalAlign=middle;resizable=0;points=[];autosize=1;strokeColor=none;fillColor=none;" vertex="1" parent="1">
          <mxGeometry x="96" y="-5" width="25" height="26" as="geometry" />
        </mxCell>
        <mxCell id="SahYqYB1amzLbVI1iF_e-43" value="0..*" style="text;html=1;align=center;verticalAlign=middle;resizable=0;points=[];autosize=1;strokeColor=none;fillColor=none;" vertex="1" parent="1">
          <mxGeometry x="547" y="550" width="36" height="26" as="geometry" />
        </mxCell>
        <mxCell id="SahYqYB1amzLbVI1iF_e-44" value="1..*" style="text;html=1;align=center;verticalAlign=middle;resizable=0;points=[];autosize=1;strokeColor=none;fillColor=none;" vertex="1" parent="1">
          <mxGeometry x="158" y="306" width="36" height="26" as="geometry" />
        </mxCell>
        <mxCell id="SahYqYB1amzLbVI1iF_e-45" value="0..*" style="text;html=1;align=center;verticalAlign=middle;resizable=0;points=[];autosize=1;strokeColor=none;fillColor=none;" vertex="1" parent="1">
          <mxGeometry x="437" y="651" width="36" height="26" as="geometry" />
        </mxCell>
        <mxCell id="SahYqYB1amzLbVI1iF_e-46" value="1..*" style="text;html=1;align=center;verticalAlign=middle;resizable=0;points=[];autosize=1;strokeColor=none;fillColor=none;" vertex="1" parent="1">
          <mxGeometry x="245" y="242" width="36" height="26" as="geometry" />
        </mxCell>
        <mxCell id="SahYqYB1amzLbVI1iF_e-48" value="1..*" style="text;html=1;align=center;verticalAlign=middle;resizable=0;points=[];autosize=1;strokeColor=none;fillColor=none;" vertex="1" parent="1">
          <mxGeometry x="190" y="310" width="36" height="26" as="geometry" />
        </mxCell>
        <mxCell id="SahYqYB1amzLbVI1iF_e-49" value="0..*" style="text;html=1;align=center;verticalAlign=middle;resizable=0;points=[];autosize=1;strokeColor=none;fillColor=none;" vertex="1" parent="1">
          <mxGeometry x="920" y="465" width="36" height="26" as="geometry" />
        </mxCell>
        <mxCell id="SahYqYB1amzLbVI1iF_e-51" value="0..*" style="text;html=1;align=center;verticalAlign=middle;resizable=0;points=[];autosize=1;strokeColor=none;fillColor=none;" vertex="1" parent="1">
          <mxGeometry x="480" y="-104" width="36" height="26" as="geometry" />
        </mxCell>
        <mxCell id="SahYqYB1amzLbVI1iF_e-53" value="1" style="text;html=1;align=center;verticalAlign=middle;resizable=0;points=[];autosize=1;strokeColor=none;fillColor=none;" vertex="1" parent="1">
          <mxGeometry x="210" y="-98" width="25" height="26" as="geometry" />
        </mxCell>
        <mxCell id="SahYqYB1amzLbVI1iF_e-54" value="1..*" style="text;html=1;align=center;verticalAlign=middle;resizable=0;points=[];autosize=1;strokeColor=none;fillColor=none;" vertex="1" parent="1">
          <mxGeometry x="384" y="-73" width="36" height="26" as="geometry" />
        </mxCell>
        <mxCell id="SahYqYB1amzLbVI1iF_e-55" value="" style="endArrow=none;html=1;rounded=0;jumpStyle=arc;exitX=0.998;exitY=-0.092;exitDx=0;exitDy=0;exitPerimeter=0;entryX=0.006;entryY=0.599;entryDx=0;entryDy=0;entryPerimeter=0;" edge="1" parent="1" source="BhT-M4iAWBgtH7uGOnwi-26" target="BhT-M4iAWBgtH7uGOnwi-2">
          <mxGeometry relative="1" as="geometry">
            <mxPoint x="564" y="420" as="sourcePoint" />
            <mxPoint x="627" y="463" as="targetPoint" />
            <Array as="points" />
          </mxGeometry>
        </mxCell>
        <mxCell id="SahYqYB1amzLbVI1iF_e-56" value="1" style="text;html=1;align=center;verticalAlign=middle;resizable=0;points=[];autosize=1;strokeColor=none;fillColor=none;" vertex="1" parent="1">
          <mxGeometry x="571" y="213" width="25" height="26" as="geometry" />
        </mxCell>
        <mxCell id="SahYqYB1amzLbVI1iF_e-58" value="1..*" style="text;html=1;align=center;verticalAlign=middle;resizable=0;points=[];autosize=1;strokeColor=none;fillColor=none;" vertex="1" parent="1">
          <mxGeometry x="722" y="374" width="36" height="26" as="geometry" />
        </mxCell>
        <mxCell id="SahYqYB1amzLbVI1iF_e-59" value="1..*" style="text;html=1;align=center;verticalAlign=middle;resizable=0;points=[];autosize=1;strokeColor=none;fillColor=none;" vertex="1" parent="1">
          <mxGeometry x="511" y="442" width="36" height="26" as="geometry" />
        </mxCell>
        <mxCell id="SahYqYB1amzLbVI1iF_e-60" value="1..*" style="text;html=1;align=center;verticalAlign=middle;resizable=0;points=[];autosize=1;strokeColor=none;fillColor=none;" vertex="1" parent="1">
          <mxGeometry x="600" y="439" width="36" height="26" as="geometry" />
        </mxCell>
        <mxCell id="SahYqYB1amzLbVI1iF_e-61" value="1" style="text;html=1;align=center;verticalAlign=middle;resizable=0;points=[];autosize=1;strokeColor=none;fillColor=none;" vertex="1" parent="1">
          <mxGeometry x="455" y="224" width="25" height="26" as="geometry" />
        </mxCell>
        <mxCell id="SahYqYB1amzLbVI1iF_e-62" value="0..*" style="text;html=1;align=center;verticalAlign=middle;resizable=0;points=[];autosize=1;strokeColor=none;fillColor=none;" vertex="1" parent="1">
          <mxGeometry x="1015" y="324" width="36" height="26" as="geometry" />
        </mxCell>
        <mxCell id="SahYqYB1amzLbVI1iF_e-63" value="*" style="text;html=1;align=center;verticalAlign=middle;resizable=0;points=[];autosize=1;strokeColor=none;fillColor=none;" vertex="1" parent="1">
          <mxGeometry x="696" y="-136" width="23" height="26" as="geometry" />
        </mxCell>
        <mxCell id="SahYqYB1amzLbVI1iF_e-64" value="1" style="text;html=1;align=center;verticalAlign=middle;resizable=0;points=[];autosize=1;strokeColor=none;fillColor=none;" vertex="1" parent="1">
          <mxGeometry x="158" y="361" width="25" height="26" as="geometry" />
        </mxCell>
        <mxCell id="SahYqYB1amzLbVI1iF_e-65" value="*" style="text;html=1;align=center;verticalAlign=middle;resizable=0;points=[];autosize=1;strokeColor=none;fillColor=none;" vertex="1" parent="1">
          <mxGeometry x="278" y="203" width="23" height="26" as="geometry" />
        </mxCell>
        <mxCell id="SahYqYB1amzLbVI1iF_e-95" value="" style="endArrow=none;html=1;edgeStyle=orthogonalEdgeStyle;rounded=0;exitX=1;exitY=0.5;exitDx=0;exitDy=0;entryX=0.324;entryY=1.243;entryDx=0;entryDy=0;entryPerimeter=0;" edge="1" parent="1" target="SahYqYB1amzLbVI1iF_e-94">
          <mxGeometry relative="1" as="geometry">
            <mxPoint x="250" y="272" as="sourcePoint" />
            <mxPoint x="342" y="391" as="targetPoint" />
            <Array as="points">
              <mxPoint x="261" y="272" />
              <mxPoint x="261" y="404" />
              <mxPoint x="346" y="404" />
              <mxPoint x="346" y="394" />
              <mxPoint x="355" y="394" />
            </Array>
          </mxGeometry>
        </mxCell>
        <mxCell id="SahYqYB1amzLbVI1iF_e-47" value="0..*" style="text;html=1;align=center;verticalAlign=middle;resizable=0;points=[];autosize=1;strokeColor=none;fillColor=none;" vertex="1" parent="1">
          <mxGeometry x="307" y="387" width="36" height="26" as="geometry" />
        </mxCell>
        <mxCell id="SahYqYB1amzLbVI1iF_e-52" value="1" style="text;html=1;align=center;verticalAlign=middle;resizable=0;points=[];autosize=1;strokeColor=none;fillColor=none;" vertex="1" parent="1">
          <mxGeometry x="122.5" y="-5" width="25" height="26" as="geometry" />
        </mxCell>
      </root>
    </mxGraphModel>
  </diagram>
</mxfile>
